<?xml version="1.0" encoding="utf-8"?>
<!-- Generator: Adobe Illustrator 25.0.0, SVG Export Plug-In . SVG Version: 6.00 Build 0)  -->
<svg version="1.1" id="Layer_1" xmlns="http://www.w3.org/2000/svg" xmlns:xlink="http://www.w3.org/1999/xlink" x="0px" y="0px"
	 viewBox="0 0 77.4 77.4" style="enable-background:new 0 0 77.4 77.4;" xml:space="preserve">
<style type="text/css">
	.st0{fill:none;}
	.st1{enable-background:new    ;}
	.st2{fill:#E5261F;stroke:#E5261F;stroke-width:2;stroke-miterlimit:10;}
	.st3{fill:none;stroke:#E5261F;stroke-width:3;stroke-miterlimit:10;}
	.st4{fill:none;stroke:#4B28CB;stroke-width:5;stroke-miterlimit:10;}
</style>
<rect x="5" y="14.6" class="st0" width="68.1" height="62.8"/>
<g class="st1">
	<path class="st2" d="M20.5,7.5h5.6c5.4,0,7,3,7,7.6v10.3c0,4.8-1.6,8-6.8,8h-5.8V7.5z M26.2,31.5c4.1,0,4.5-2.8,4.5-6.5v-9.6
		c0-3.9-0.7-6-4.6-6h-3.2v22.1H26.2z"/>
	<path class="st2" d="M37.1,7.5h2.4v24h7.3v1.8H37L37.1,7.5L37.1,7.5z"/>
	<path class="st2" d="M49.4,7.5h2.4v25.8h-2.4V7.5z"/>
</g>
<g class="st1">
	<path class="st2" d="M21.5,44.4h2.4v25.8h-2.4V44.4z"/>
	<path class="st2" d="M28.5,44.4h5.6c5.4,0,7,3,7,7.6v10.3c0,4.8-1.6,8-6.8,8h-5.8V44.4z M34.2,68.4c4.1,0,4.5-2.8,4.5-6.5v-9.6
		c0-3.9-0.7-6-4.6-6h-3.2v22.1H34.2z"/>
	<path class="st2" d="M45.1,44.4h5.6c5.4,0,7,3,7,7.6v10.3c0,4.8-1.6,8-6.8,8h-5.8V44.4z M50.8,68.4c4.1,0,4.5-2.8,4.5-6.5v-9.6
		c0-3.9-0.7-6-4.6-6h-3.2v22.1H50.8z"/>
</g>
<line class="st3" x1="10.1" y1="38.4" x2="64.5" y2="38.4"/>
<circle class="st4" cx="38.7" cy="38.8" r="42.5"/>
</svg>
